<svg width="44" height="40" viewBox="0 0 44 40" fill="none" xmlns="http://www.w3.org/2000/svg">
<path d="M34.81 28.4767H43.11V30.9767H36.21C38.7368 32.9369 40.6197 35.608 41.6167 38.6467L39.25 39.4533C38.2604 36.3941 36.2012 33.7941 33.45 32.13C32.4952 32.9962 31.284 33.5275 30 33.6433L24.8233 38.13H18.4333L13.3167 33.59C11.9836 33.4736 10.7153 32.9631 9.67333 32.1233C6.91711 33.7872 4.85404 36.39 3.86333 39.4533L1.49667 38.6467C2.49454 35.6085 4.37725 32.9376 6.90333 30.9767H0V28.4767H8.31333L11.19 26.22L7.81 20.7033C7.51219 20.7535 7.21166 20.7857 6.91 20.8C5.99975 20.8148 5.09594 20.6449 4.25321 20.3005C3.41049 19.9561 2.64635 19.4445 2.007 18.7964C1.36764 18.1483 0.866346 17.3773 0.533417 16.53C0.200487 15.6827 0.0428385 14.7766 0.0700001 13.8667C0.0700001 6.93333 6.66667 0 6.66667 0L4.21 14.8233L9.96333 14.82L13.3333 4.79667V14.7833C13.199 16.5957 12.3631 18.2843 11.0033 19.49L13.85 24.1367L14.13 23.9167C16.3106 22.3681 18.9188 21.5362 21.5933 21.5362C24.2678 21.5362 26.8761 22.3681 29.0567 23.9167L29.2567 24.0733L32.1567 19.3567C30.9027 18.1487 30.1394 16.5199 30.0133 14.7833V4.79667L33.29 14.82L39.14 14.8233L36.6833 0C36.6833 0 43.29 6.93333 43.29 13.8667C43.3168 14.7777 43.1584 15.6846 42.8245 16.5326C42.4905 17.3806 41.988 18.152 41.3473 18.8002C40.7066 19.4484 39.9411 19.9598 39.097 20.3036C38.2529 20.6473 37.3479 20.8162 36.4367 20.8C36.0519 20.7876 35.6686 20.7463 35.29 20.6767L31.9233 26.1633L34.7233 28.36C34.7667 28.3933 34.7733 28.44 34.81 28.4767Z" fill="#DDAA44"/>
</svg>
