<svg width="40" height="40" viewBox="0 0 40 40" fill="none" xmlns="http://www.w3.org/2000/svg">
<path d="M7.16146 12.4167L8.24479 11.3125C9.45312 10.1042 11.4531 10.1042 12.7031 11.3958L12.7448 11.4583C13.7656 12.5 15.1198 13 16.599 13.1458C18.6198 13.3333 20.5781 14.4167 21.8698 16.375C23.2865 18.625 23.2656 21.625 21.7865 23.8542C21.2286 24.7364 20.4783 25.481 19.5919 26.0323C18.7054 26.5835 17.7058 26.9271 16.6678 27.0374C15.6298 27.1476 14.5803 27.0215 13.5978 26.6687C12.6154 26.3159 11.7255 25.7454 10.9948 25C9.82812 23.8542 9.16146 22.375 8.99479 20.8333C8.82812 19.3125 8.22396 17.875 7.16146 16.8125C5.95312 15.625 5.95312 13.625 7.16146 12.4167ZM15.9115 29.1667C13.474 29.1667 11.2031 28.2292 9.51562 26.5C8.05729 25 7.14062 23.125 6.91146 21.0833C6.84896 20.4583 6.66146 19.6458 6.16146 18.8958C4.91146 20.625 4.16146 22.7083 4.16146 25C4.16146 28.4167 5.82813 31.4375 8.39062 33.3333H35.4115V31.25C35.4115 23.75 30.4323 17.3958 23.6198 15.3125C25.474 18.2292 25.4323 22.125 23.5365 25C21.8698 27.6042 18.9948 29.1667 15.9115 29.1667ZM26.6198 11.5833H29.2656C31.0781 11.5833 32.6615 12.8542 32.6615 15.125V16.6667H35.2656V14.5833C35.2656 11.4583 32.4948 9.08333 29.2656 9.08333H26.6198C24.8906 9.08333 23.4115 7.375 23.4115 5.625C23.4115 3.875 24.8906 2.58333 26.6198 2.58333V0C23.4115 0 20.8281 2.58333 20.8281 5.79167C20.8281 9 23.4115 11.5833 26.6198 11.5833ZM5.20312 11.5625C5.32812 11.3542 5.49479 11.1458 5.68229 10.9375L6.76562 9.85417C6.95312 9.66667 7.16146 9.52083 7.36979 9.375L4.43229 6.39583C4.72396 5.83333 4.61979 5.10417 4.16146 4.625C3.86312 4.33459 3.46322 4.17209 3.04687 4.17209C2.63053 4.17209 2.23063 4.33459 1.93229 4.625C1.64062 4.91667 1.49479 5.27083 1.47396 5.64583C1.09896 5.66667 0.744792 5.8125 0.453125 6.10417C-0.151042 6.70833 -0.151042 7.70833 0.453125 8.33333C0.932292 8.79167 1.64062 8.89583 2.22396 8.60417L5.20312 11.5625ZM34.1406 4.97917C35.2031 3.91667 35.8698 2.47917 35.8698 0.875H33.2656C33.2656 2.60417 31.8073 4.0625 30.0781 4.0625V6.64583C33.9531 6.64583 36.9948 9.8125 36.9948 13.6875V18.75H39.5781V13.6875C39.5885 11.8702 39.0831 10.0873 38.1206 8.54581C37.1581 7.00432 35.778 5.76755 34.1406 4.97917ZM6.24479 39.5833H35.4115C37.724 39.5833 39.5781 37.7292 39.5781 35.4167H2.07812C2.07812 36.5217 2.51711 37.5815 3.29851 38.3629C4.07991 39.1443 5.13972 39.5833 6.24479 39.5833Z" fill="#DDAA44"/>
</svg>
