<svg width="49" height="44" viewBox="0 0 49 44" fill="none" xmlns="http://www.w3.org/2000/svg">
<path d="M4.83333 32.625V12.0833H2.41667V9.66667H4.83333V7.25H2.41667V4.83333H4.83333V2.41667H2.41667V0H16.9167C18.125 0.0725 19.2125 0.58 20.155 1.5225C21.0975 2.465 21.6292 3.625 21.75 4.83333H45.9167V7.25H21.75C21.6292 8.53083 21.0975 9.66667 20.155 10.7058C19.2125 11.745 18.125 12.2042 16.9167 12.0833H12.0833V29.1208C12.2042 29.1208 12.3975 29.0967 12.6633 29C12.9292 28.9033 13.1467 29 13.2917 29C14.645 29 16.1917 29.3383 17.9317 30.015C18.9225 27.7917 20.6142 25.81 23.0308 24.1667C25.4475 22.5233 27.8642 21.75 30.2808 21.75C33.9783 21.75 37.12 23.0308 39.6817 25.5925C42.2433 28.1542 43.5 31.2958 43.5 35.0417V35.6942C43.5 36.0083 43.4275 36.1775 43.4275 36.25H2.755C3.06917 35.0417 3.74583 33.8333 4.83333 32.625ZM9.66667 29.5558V12.0833H7.25V30.6917C8.45833 30.0875 9.2075 29.725 9.66667 29.5558ZM16.9167 9.66667V7.25H12.0833V9.66667H16.9167ZM16.9167 2.41667H12.0833V4.83333H16.9167V2.41667ZM7.25 2.41667V4.83333H9.66667V2.41667H7.25ZM7.25 7.25V9.66667H9.66667V7.25H7.25ZM0 38.6667H48.3333L43.5 43.5H4.83333L0 38.6667Z" fill="#DDAA44"/>
</svg>
