<svg width="42" height="42" viewBox="0 0 42 42" fill="none" xmlns="http://www.w3.org/2000/svg">
<path d="M18.3244 4.11528C16.3641 6.07557 15.2302 8.68799 14.5801 11.3082C13.9279 13.9383 13.736 16.6878 13.738 19.0417C13.7365 19.2088 13.6697 19.3687 13.5518 19.4873C13.434 19.6059 13.2745 19.6736 13.1074 19.6762C9.63918 19.6899 5.24272 20.107 1.68639 21.8049C0.350805 22.4433 -0.20732 23.7593 0.0688047 25.0068C0.329263 26.1739 1.27318 27.1316 2.55001 27.4429C4.10689 27.8229 5.91247 28.3144 7.48306 28.8725C8.26835 29.1506 8.97139 29.4365 9.54322 29.7224C10.1346 30.0182 10.4969 30.2708 10.6751 30.449C10.8533 30.6292 11.106 30.9895 11.4017 31.5809C11.6876 32.1527 11.9735 32.8538 12.2516 33.6372C12.8078 35.2077 13.2973 37.0114 13.6773 38.5682C13.9886 39.8451 14.9463 40.789 16.1154 41.0494C17.3628 41.3256 18.6788 40.7694 19.3173 39.4338C21.0151 35.8814 21.4323 31.4947 21.4518 28.0304C21.4518 27.6877 21.7397 27.4018 22.0844 27.4018C24.4383 27.4018 27.1878 27.2099 29.8198 26.5578C32.444 25.9057 35.0564 24.7718 37.0186 22.8076C39.212 20.6162 40.2851 17.7002 40.7728 14.8665C41.2623 12.023 41.1821 9.13644 40.9588 6.85107C40.8005 5.13361 40.046 3.52574 38.8262 2.30634C37.6065 1.08694 35.9984 0.332939 34.2809 0.175111C31.9975 -0.0481391 29.1109 -0.126472 26.2674 0.361153C23.4337 0.848778 20.5177 1.92194 18.3244 4.11528ZM29.3753 5.8719C29.8946 5.8719 30.3928 6.07823 30.76 6.44549C31.1273 6.81274 31.3336 7.31085 31.3336 7.83024C31.3336 8.34962 31.1273 8.84773 30.76 9.21499C30.3928 9.58225 29.8946 9.78857 29.3753 9.78857C28.8559 9.78857 28.3578 9.58225 27.9905 9.21499C27.6233 8.84773 27.4169 8.34962 27.4169 7.83024C27.4169 7.31085 27.6233 6.81274 27.9905 6.44549C28.3578 6.07823 28.8559 5.8719 29.3753 5.8719Z" fill="#DDAA44"/>
</svg>
