<svg width="47" height="58" viewBox="0 0 47 58" fill="none" xmlns="http://www.w3.org/2000/svg">
<path d="M23.6306 58L11.3583 34.2727C8.26852 34.4045 5.60257 33.5038 3.3605 31.5705C1.12017 29.6371 0 27.0227 0 23.7273C0 21.4864 0.642333 19.4652 1.927 17.6636C3.20993 15.8621 4.83056 14.5879 6.78889 13.8409C7.57222 9.84242 9.52011 6.53555 12.6326 3.92027C15.7433 1.30676 19.3657 0 23.5 0C27.6343 0 31.2576 1.30676 34.3701 3.92027C37.4808 6.53555 39.4278 9.84242 40.2111 13.8409C42.1694 14.5879 43.7909 15.8621 45.0756 17.6636C46.3585 19.4652 47 21.4864 47 23.7273C47 27.0227 45.8468 29.6371 43.5403 31.5705C41.2338 33.5038 38.6444 34.4045 35.7722 34.2727L23.6306 58ZM10.4444 29C11.0972 29 11.7387 28.8902 12.3688 28.6705C13.0007 28.4508 13.5778 28.0773 14.1 27.55L15.5361 26.1L17.2333 27.1545C18.1472 27.7697 19.1377 28.2311 20.2048 28.5386C21.2701 28.8462 22.3685 29 23.5 29C24.6315 29 25.7299 28.8462 26.7952 28.5386C27.8623 28.2311 28.8528 27.7697 29.7667 27.1545L31.4639 26.1L32.9 27.55C33.4222 28.0773 33.9984 28.4508 34.6286 28.6705C35.2604 28.8902 35.9028 29 36.5556 29C37.9917 29 39.2215 28.4833 40.2451 27.4498C41.2669 26.4181 41.7778 25.1773 41.7778 23.7273C41.7778 22.4091 41.3644 21.2561 40.5375 20.2684C39.7106 19.2788 38.6444 18.6742 37.3389 18.4545L35.3806 18.1909L35.25 16.0818C35.0324 13.05 33.7921 10.491 31.5292 8.40473C29.2662 6.31673 26.5898 5.27273 23.5 5.27273C20.4102 5.27273 17.7338 6.31673 15.4708 8.40473C13.2079 10.491 11.9676 13.05 11.75 16.0818L11.6194 18.1909L9.66111 18.5864C8.35556 18.85 7.28935 19.4432 6.4625 20.3659C5.63565 21.2886 5.22222 22.4091 5.22222 23.7273C5.22222 25.1773 5.734 26.4181 6.75756 27.4498C7.77937 28.4833 9.00833 29 10.4444 29ZM23.6306 46.5318L30.6806 32.6909C29.6361 33.2182 28.5046 33.6136 27.2861 33.8773C26.0676 34.1409 24.8056 34.2727 23.5 34.2727C22.325 34.2727 21.1396 34.1409 19.9437 33.8773C18.746 33.6136 17.5815 33.2182 16.45 32.6909L23.6306 46.5318Z" fill="#DDAA44"/>
</svg>
