<svg width="50" height="50" viewBox="0 0 50 50" fill="none" xmlns="http://www.w3.org/2000/svg">
<path d="M33.7453 2.09348e-06C35.0349 -0.000133959 36.3086 0.2848 37.4752 0.834413C38.6419 1.38403 39.6726 2.18473 40.4937 3.17922C41.3147 4.17371 41.9058 5.33739 42.2246 6.587C42.5434 7.8366 42.5821 9.14122 42.3378 10.4075L42.3003 10.5725C44.4752 11.298 46.3767 12.6705 47.7503 14.5062C49.124 16.342 49.9042 18.5535 49.9865 20.8448C50.0689 23.1361 49.4495 25.3979 48.2113 27.3275C46.9731 29.2572 45.175 30.7627 43.0578 31.6425L40.3428 47.91C40.2457 48.4938 39.9447 49.0242 39.4934 49.4069C39.042 49.7896 38.4695 49.9997 37.8778 50H12.1128C11.521 49.9997 10.9485 49.7896 10.4971 49.4069C10.0458 49.0242 9.74481 48.4938 9.64776 47.91L7.07526 32.485C5.34507 32.3869 3.70226 31.6926 2.42607 30.5202C1.14988 29.3478 0.319071 27.7696 0.0748585 26.054C-0.169354 24.3383 0.188104 22.591 1.08647 21.109C1.98484 19.6271 3.36868 18.502 5.00276 17.925L4.99526 17.5C4.99498 14.9685 5.6354 12.4781 6.85685 10.2608C8.0783 8.04352 9.84105 6.17141 11.9809 4.81886C14.1208 3.46631 16.5681 2.67734 19.0951 2.52542C21.622 2.3735 24.1463 2.86357 26.4328 3.95C27.2275 2.73588 28.3122 1.73893 29.589 1.04928C30.8657 0.35962 32.2942 -0.00100258 33.7453 2.09348e-06ZM22.4953 32.5H17.4953V45H22.4953V32.5ZM32.4953 32.5H27.4953V45H32.4953V32.5ZM38.7453 27.5C39.6693 27.5 40.5819 27.2951 41.4172 26.9C42.2526 26.505 42.99 25.9296 43.5762 25.2153C44.1625 24.501 44.5831 23.6657 44.8077 22.7693C45.0324 21.873 45.0554 20.938 44.8753 20.0316C44.6952 19.1253 44.3163 18.2702 43.766 17.5279C43.2157 16.7855 42.5076 16.1745 41.6927 15.7387C40.8779 15.3029 39.9765 15.0532 39.0536 15.0076C38.1307 14.962 37.2091 15.1216 36.3553 15.475L35.9178 15.6775C34.7642 16.2719 33.4247 16.3946 32.1823 16.0195C30.94 15.6444 29.8922 14.801 29.2603 13.6675L29.0853 13.325C28.2863 11.5861 27.0051 10.1129 25.3939 9.0804C23.7826 8.04789 21.909 7.49938 19.9953 7.5C14.6403 7.5 10.2678 11.71 10.0078 16.9175L9.99526 17.41L10.0028 17.835C10.0204 18.8167 9.74868 19.7819 9.22141 20.6101C8.69414 21.4384 7.93468 22.093 7.03776 22.4925L6.66276 22.64C6.10765 22.8377 5.64009 23.2249 5.34244 23.7334C5.04478 24.242 4.93613 24.8392 5.03562 25.42C5.13511 26.0008 5.43635 26.5279 5.88629 26.9084C6.33623 27.2889 6.90601 27.4984 7.49526 27.5H38.7453Z" fill="#DDAA44"/>
</svg>
