<svg width="33" height="38" viewBox="0 0 33 38" fill="none" xmlns="http://www.w3.org/2000/svg">
<path d="M4.35579 2.44184C4.27694 3.7804 4.47057 5.1211 4.92463 6.3805C5.3787 7.63991 6.08349 8.79107 6.99515 9.76237C5.22323 10.2776 3.63683 11.3032 2.42843 12.7148C1.22003 14.1264 0.44157 15.8633 0.187503 17.7148C-0.425155 22.1579 0.473658 26.6801 2.73572 30.5356L3.38672 31.6485C3.4114 31.6894 3.43809 31.7291 3.4667 31.7673L6.10048 35.3625C6.65833 36.1245 7.37325 36.754 8.19546 37.2072C9.01767 37.6604 9.92741 37.9265 10.8613 37.9868C11.7953 38.0471 12.7309 37.9003 13.6032 37.5565C14.4755 37.2128 15.2634 36.6803 15.912 35.9963C15.9879 35.9163 16.0789 35.8527 16.1796 35.8092C16.2802 35.7657 16.3885 35.7433 16.4979 35.7433C16.6074 35.7433 16.7157 35.7657 16.8163 35.8092C16.917 35.8527 17.008 35.9163 17.0839 35.9963C17.7325 36.6803 18.5204 37.2128 19.3927 37.5565C20.265 37.9003 21.2006 38.0471 22.1346 37.9868C23.0685 37.9265 23.9782 37.6604 24.8004 37.2072C25.6226 36.754 26.3376 36.1245 26.8954 35.3625L29.5292 31.7654C29.5572 31.7272 29.5833 31.6875 29.6073 31.6466L30.2602 30.5337C32.5233 26.68 33.4241 22.1592 32.814 17.7167C32.6339 16.4076 32.1908 15.15 31.512 14.0217C30.8333 12.8934 29.9334 11.9183 28.8681 11.1569C27.8027 10.3955 26.5946 9.86402 25.3185 9.59527C24.0424 9.32651 22.7255 9.32625 21.4493 9.59449L17.9134 10.3377H17.9078C17.9636 8.8664 18.1906 7.28195 18.6351 5.92763C19.1745 4.29036 19.9222 3.30574 20.7555 2.9549C21.0971 2.81032 21.3681 2.53405 21.5089 2.18685C21.6496 1.83966 21.6486 1.44998 21.506 1.10355C21.3635 0.757115 21.091 0.482304 20.7487 0.33957C20.4063 0.196836 20.022 0.197871 19.6804 0.342447C17.7237 1.17051 16.6114 3.13409 15.9883 5.03166L15.9027 5.2995C15.4447 4.40194 14.8531 3.58124 14.1488 2.86625C13.1841 1.88689 12.0253 1.12653 10.7491 0.635509C9.47289 0.144488 8.10837 -0.0659904 6.74591 0.0180125C6.12413 0.0543066 5.53711 0.320767 5.0962 0.766849C4.6553 1.21293 4.39117 1.8076 4.35393 2.43807L4.35579 2.44184ZM9.79819 17.1829C9.15276 17.313 8.56128 17.7733 8.19114 18.6504C7.81355 19.5444 7.67963 20.8705 8.08698 22.5247C8.17071 22.8865 8.11071 23.2672 7.91994 23.5845C7.72916 23.9018 7.42293 24.1302 7.06743 24.2204C6.71194 24.3106 6.33572 24.2553 6.02009 24.0665C5.70446 23.8776 5.47477 23.5705 5.38066 23.2113C4.85985 21.0949 4.95843 19.1182 5.62618 17.5356C6.30136 15.9379 7.56989 14.7477 9.25134 14.4082C9.43357 14.3646 9.62259 14.3586 9.80714 14.3906C9.9917 14.4227 10.168 14.492 10.3256 14.5946C10.4831 14.6972 10.6187 14.8309 10.7242 14.9878C10.8297 15.1446 10.903 15.3214 10.9398 15.5076C10.9765 15.6938 10.9759 15.8856 10.9379 16.0715C10.9 16.2574 10.8256 16.4337 10.7191 16.5899C10.6125 16.7461 10.4761 16.8789 10.3179 16.9804C10.1597 17.082 9.98294 17.1521 9.79819 17.1829Z" fill="#DDAA44"/>
</svg>
