<svg width="46" height="46" viewBox="0 0 46 46" fill="none" xmlns="http://www.w3.org/2000/svg">
<path d="M18.0918 2.99C17.315 4.21752 16.8375 5.61044 16.698 7.0564C16.583 9.0068 16.882 10.9296 18.0918 12.3832C19.3568 13.9012 21.183 14.398 22.9908 14.398C24.8446 14.398 26.657 13.8322 27.9036 12.328C29.1042 10.8744 29.4308 8.9654 29.2974 7.0288C29.1388 5.6079 28.6607 4.24131 27.899 3.0314C27.0618 1.6974 25.4748 0 22.9908 0C20.5344 0 18.9428 1.6422 18.0918 2.99ZM11.5 18.4C9.67001 18.4 7.91496 19.127 6.62096 20.421C5.32696 21.715 4.6 23.47 4.6 25.3V25.3276L13.1882 32.0252C13.3834 32.1764 13.6222 32.2607 13.869 32.2656C14.1159 32.2706 14.3578 32.196 14.559 32.0528L19.665 28.4188C20.6388 27.7254 21.8046 27.3528 23 27.3528C24.1954 27.3528 25.3612 27.7254 26.335 28.4188L31.441 32.0528C31.6422 32.196 31.8841 32.2706 32.131 32.2656C32.3778 32.2607 32.6166 32.1764 32.8118 32.0252L41.4 25.3276V25.3C41.4 23.47 40.673 21.715 39.379 20.421C38.085 19.127 36.33 18.4 34.5 18.4H11.5ZM35.6454 35.65L41.4 31.1604V41.4H43.7C44.31 41.4 44.895 41.6423 45.3263 42.0737C45.7577 42.505 46 43.09 46 43.7C46 44.31 45.7577 44.895 45.3263 45.3263C44.895 45.7577 44.31 46 43.7 46H2.3C1.69 46 1.10499 45.7577 0.673654 45.3263C0.242321 44.895 0 44.31 0 43.7C0 43.09 0.242321 42.505 0.673654 42.0737C1.10499 41.6423 1.69 41.4 2.3 41.4H4.6V31.1604L10.3546 35.65C11.3314 36.4132 12.5286 36.8403 13.7679 36.8676C15.0072 36.895 16.2221 36.5211 17.2316 35.8018L22.333 32.1678C22.5278 32.0291 22.7609 31.9546 23 31.9546C23.2391 31.9546 23.4722 32.0291 23.667 32.1678L28.773 35.8018C29.7821 36.5201 30.9961 36.8933 32.2344 36.8659C33.4727 36.8386 34.669 36.4121 35.6454 35.65Z" fill="#DDAA44"/>
</svg>
