<svg width="46" height="45" viewBox="0 0 46 45" fill="none" xmlns="http://www.w3.org/2000/svg">
<path d="M33 10.5005H33.0084ZM43.4578 7.50049H34.9209L35.7572 4.15737L39.3497 2.93393C40.1137 2.67424 40.5684 1.86237 40.3481 1.08612C40.2921 0.89085 40.1969 0.709002 40.0685 0.551606C39.94 0.39421 39.7809 0.264547 39.6009 0.170481C39.4208 0.076415 39.2235 0.0199071 39.0209 0.00438486C38.8184 -0.0111374 38.6148 0.0146497 38.4225 0.0801816L34.0162 1.58018C33.7789 1.6611 33.5657 1.8002 33.3961 1.98477C33.2264 2.16934 33.1057 2.3935 33.045 2.63674L31.829 7.50049H19.5422C18.735 7.50049 18.0422 8.12112 18.0019 8.92831C17.9921 9.13112 18.0236 9.33381 18.0945 9.52408C18.1653 9.71436 18.2741 9.88827 18.4142 10.0353C18.5543 10.1823 18.7227 10.2993 18.9094 10.3793C19.096 10.4592 19.2969 10.5005 19.5 10.5005H19.7578L19.8515 11.3124C19.8736 11.502 19.9646 11.6768 20.1072 11.8037C20.2498 11.9306 20.4341 12.0006 20.625 12.0005C24.2812 12.0005 27.5306 13.0224 30.0112 14.9555C31.391 16.0186 32.5095 17.383 33.2812 18.9446C33.7133 19.8229 34.032 20.7525 34.23 21.7111C34.2694 21.8979 34.38 22.062 34.5384 22.1686C35.8137 23.034 36.7545 24.3097 37.2045 25.7837C37.6544 27.2578 37.5863 28.8414 37.0115 30.2714C36.9447 30.4369 36.9397 30.621 36.9975 30.7899C37.3296 31.7416 37.4995 32.7424 37.5 33.7505C37.5 35.8449 36.7875 37.8408 35.4937 39.3708C34.7602 40.244 33.8375 40.9388 32.7956 41.4024C32.6154 41.4818 32.4736 41.629 32.4009 41.8121C32.0115 42.8264 31.4617 43.7715 30.7725 44.6114C30.7438 44.6455 30.7254 44.6871 30.7195 44.7312C30.7136 44.7754 30.7204 44.8203 30.739 44.8607C30.7577 44.9012 30.7876 44.9354 30.825 44.9595C30.8625 44.9836 30.9061 44.9965 30.9506 44.9967H35.564C36.6936 44.9921 37.7805 44.5648 38.6107 43.7989C39.441 43.0331 39.9544 41.9841 40.05 40.8586L43.2562 10.5005H43.5C43.7032 10.5007 43.9043 10.4597 44.0912 10.3798C44.278 10.3 44.4467 10.183 44.587 10.0359C44.7273 9.88892 44.8362 9.71493 44.9072 9.52452C44.9782 9.33412 45.0098 9.13128 45 8.92831C44.9606 8.12112 44.265 7.50049 43.4578 7.50049Z" fill="#DDAA44"/>
<path d="M8.68969 28.5005C8.98553 28.4991 9.27872 28.5564 9.55228 28.669C9.82584 28.7817 10.0744 28.9474 10.2834 29.1567L11.7375 30.6108C11.7723 30.6457 11.8137 30.6733 11.8592 30.6922C11.9047 30.7111 11.9535 30.7208 12.0028 30.7208C12.0521 30.7208 12.1009 30.7111 12.1464 30.6922C12.1919 30.6733 12.2333 30.6457 12.2681 30.6108L13.7194 29.1567C13.9285 28.9474 14.177 28.7817 14.4505 28.669C14.7241 28.5564 15.0173 28.4991 15.3131 28.5005H33.7425C33.841 28.5015 33.9387 28.4831 34.0301 28.4463C34.1215 28.4095 34.2047 28.3551 34.275 28.2861C34.3454 28.2172 34.4015 28.1351 34.4401 28.0444C34.4786 27.9538 34.499 27.8565 34.5 27.758V27.7505C34.4989 26.8863 34.2 26.0489 33.6535 25.3795C33.107 24.7101 32.3465 24.2495 31.5 24.0755C31.4231 21.292 30.2812 18.9624 28.1709 17.3255C26.2191 15.803 23.6109 15.0005 20.625 15.0005H13.875C7.47938 15.0005 3.14719 18.6352 3 24.0755C2.15354 24.2495 1.39297 24.7101 0.846497 25.3795C0.30002 26.0489 0.00105654 26.8863 7.56921e-07 27.7505C7.56921e-07 27.9494 0.0790184 28.1402 0.219671 28.2808C0.360323 28.4215 0.551088 28.5005 0.750001 28.5005H8.68969ZM15.9319 31.5005C15.8334 31.5004 15.7358 31.5197 15.6447 31.5574C15.5537 31.595 15.471 31.6502 15.4013 31.7199L13.3256 33.7964C12.974 34.1479 12.4972 34.3454 12 34.3454C11.5028 34.3454 11.026 34.1479 10.6744 33.7964L8.59875 31.7199C8.52905 31.6502 8.44631 31.595 8.35526 31.5574C8.26422 31.5197 8.16665 31.5004 8.06813 31.5005H1.56188C1.20952 31.4989 0.867961 31.622 0.597582 31.8479C0.327203 32.0739 0.145421 32.3881 0.0843757 32.7352C0.0280544 33.0707 -0.000168518 33.4103 7.56921e-07 33.7505C7.56921e-07 36.6183 1.98094 38.9546 4.43063 39.0005C4.65844 40.418 5.20969 41.6986 6.03938 42.7008C7.26656 44.183 9.05063 45.0005 11.0625 45.0005H23.4375C25.4494 45.0005 27.2334 44.183 28.4606 42.6989C29.2903 41.6967 29.8416 40.4161 30.0694 38.9986C32.5191 38.9546 34.5 36.6183 34.5 33.7486C34.5002 33.4084 34.4719 33.0688 34.4156 32.7333C34.3542 32.3866 34.1722 32.0728 33.9019 31.8472C33.6316 31.6216 33.2902 31.4988 32.9381 31.5005H15.9319Z" fill="#DDAA44"/>
</svg>
