<svg width="40" height="40" viewBox="0 0 40 40" fill="none" xmlns="http://www.w3.org/2000/svg">
<path d="M36.6667 5L16.6667 7.35V10H36.6667V11.6667H16.6667V20H36.6667C36.6667 23.0167 35.7167 25.7667 33.8667 28.25C32.0167 30.7333 29.6167 32.55 26.6667 33.75V36.6667H13.3334V33.75C10.4 32.55 7.98337 30.7167 6.13337 28.25C4.28337 25.7833 3.33337 23.0167 3.33337 20H8.33337V6.66667L36.6667 3.33334V5ZM10 8.13334V10H11.6667V7.96667L10 8.13334ZM10 11.6667V20H11.6667V11.6667H10ZM15 20V11.6667H13.3334V20H15ZM15 10V7.58334L13.3334 7.73334V10H15Z" fill="#DDAA44"/>
</svg>
