<svg width="40" height="40" viewBox="0 0 40 40" fill="none" xmlns="http://www.w3.org/2000/svg">
<path d="M13.0345 20.9638C12.6385 20.9638 12.2514 21.0811 11.9222 21.3008C11.5929 21.5205 11.3363 21.8328 11.1848 22.1982C11.0332 22.5636 10.9936 22.9656 11.0709 23.3535C11.1481 23.7414 11.3388 24.0977 11.6188 24.3773C11.8988 24.657 12.2555 24.8474 12.6439 24.9246C13.0323 25.0017 13.4348 24.9621 13.8007 24.8108C14.1665 24.6594 14.4792 24.4031 14.6992 24.0743C14.9192 23.7455 15.0366 23.3589 15.0366 22.9634C15.0366 22.4331 14.8257 21.9245 14.4502 21.5495C14.0748 21.1745 13.5655 20.9638 13.0345 20.9638ZM13.0345 12.0056C12.6385 12.0056 12.2514 12.1228 11.9222 12.3426C11.5929 12.5623 11.3363 12.8746 11.1848 13.2399C11.0332 13.6053 10.9936 14.0074 11.0709 14.3953C11.1481 14.7832 11.3388 15.1394 11.6188 15.4191C11.8988 15.6987 12.2555 15.8892 12.6439 15.9663C13.0323 16.0435 13.4348 16.0039 13.8007 15.8526C14.1665 15.7012 14.4792 15.4449 14.6992 15.1161C14.9192 14.7873 15.0366 14.4006 15.0366 14.0052C15.0366 13.4748 14.8257 12.9662 14.4502 12.5912C14.0748 12.2162 13.5655 12.0056 13.0345 12.0056ZM20.0219 16.0048C19.4909 16.0048 18.9817 16.2154 18.6062 16.5904C18.2307 16.9654 18.0198 17.474 18.0198 18.0044V20.004C18.0198 20.5343 18.2307 21.0429 18.6062 21.4179C18.9817 21.7929 19.4909 22.0036 20.0219 22.0036C20.5529 22.0036 21.0622 21.7929 21.4376 21.4179C21.8131 21.0429 22.0241 20.5343 22.0241 20.004V18.0044C22.0241 17.474 21.8131 16.9654 21.4376 16.5904C21.0622 16.2154 20.5529 16.0048 20.0219 16.0048ZM37.04 13.1453C36.3493 12.7484 35.5865 12.4928 34.7959 12.3932C34.0053 12.2937 33.2028 12.3522 32.4351 12.5655C31.6361 12.7792 30.8921 13.161 30.2528 13.6852L7.02813 0.267896C6.72377 0.0923943 6.37851 0 6.02707 0C5.67562 0 5.33036 0.0923943 5.026 0.267896C4.71674 0.441514 4.45923 0.694085 4.27981 0.999758C4.1004 1.30543 4.00553 1.65323 4.00492 2.00755V28.3423C2.82337 28.7404 1.79892 29.5029 1.07926 30.5199C0.359597 31.5369 -0.0180851 32.756 0.000665904 34.0012C0.000109141 35.5648 0.610889 37.0669 1.70289 38.1874C2.7949 39.3079 4.28181 39.9583 5.84687 40H7.00811C13.5685 39.9846 20.0081 38.2358 25.673 34.931C31.3378 31.6263 36.0263 26.8833 39.2624 21.1837C40.0098 19.82 40.1978 18.2198 39.787 16.7202C39.3762 15.2207 38.3985 13.939 37.06 13.1453H37.04ZM8.00917 5.46686L27.8102 16.8846C25.6135 20.1584 22.6767 22.8704 19.2371 24.8016C15.7974 26.7329 11.9513 27.8293 8.00917 28.0024V5.46686ZM35.7787 19.2241C32.8064 24.4544 28.4657 28.7788 23.2213 31.734C17.9769 34.6893 12.0264 36.1642 6.00704 36.0008C5.47605 36.0008 4.9668 35.7901 4.59133 35.4151C4.21586 35.0401 4.00492 34.5315 4.00492 34.0012C4.00335 33.7333 4.05571 33.4678 4.15889 33.2204C4.26207 32.9731 4.41397 32.749 4.60556 32.5615C4.98169 32.1994 5.48463 31.9985 6.00704 32.0016H7.02813C12.169 31.9995 17.2172 30.634 21.6565 28.0448C26.0958 25.4555 29.7671 21.7353 32.295 17.2645C32.4165 17.0452 32.5826 16.8536 32.7825 16.7021C32.9825 16.5506 33.212 16.4425 33.4562 16.3847C33.961 16.2463 34.5001 16.3109 34.9578 16.5647C35.4171 16.8113 35.762 17.2271 35.9191 17.7238C36.0761 18.2205 36.0329 18.7588 35.7987 19.2241H35.7787Z" fill="#DDAA44"/>
</svg>
