<svg width="63" height="60" viewBox="0 0 63 60" fill="none" xmlns="http://www.w3.org/2000/svg">
<path d="M3.94834 20.5726V20.5316C3.94829 16.4758 5.14946 12.5108 7.40033 9.13692C9.6512 5.76304 12.8509 3.1314 16.5958 1.574C20.3406 0.0166136 24.4629 -0.396746 28.4424 0.386076C32.4219 1.1689 36.0805 3.11283 38.9564 5.97261C41.2192 4.85577 43.7467 4.38619 46.2597 4.61576C48.7726 4.84533 51.1732 5.76512 53.1961 7.2735C55.2191 8.78187 56.7857 10.8201 57.7229 13.163C58.6601 15.506 58.9314 18.0624 58.5067 20.5498C59.131 20.6077 59.7367 20.7937 60.2859 21.0962C60.8351 21.3986 61.3161 21.811 61.6989 22.3077C62.0816 22.8043 62.3579 23.3745 62.5105 23.9826C62.663 24.5908 62.6886 25.2238 62.5856 25.8423C60.5233 38.2477 55.4225 46.0998 47.2921 49.4031V52.4691C47.2921 54.2841 46.5711 56.0249 45.2876 57.3083C44.0042 58.5918 42.2634 59.3128 40.4483 59.3128H22.1983C20.3833 59.3128 18.6425 58.5918 17.3591 57.3083C16.0756 56.0249 15.3546 54.2841 15.3546 52.4691V49.4031C7.22422 46.0998 2.12334 38.2477 0.0610949 25.8423C-0.0384326 25.2403 -0.0161778 24.6244 0.126542 24.0311C0.269262 23.4378 0.529547 22.8791 0.891993 22.3882C1.25444 21.8973 1.71168 21.4841 2.23666 21.173C2.76163 20.8619 3.34368 20.6593 3.94834 20.5772V20.5726ZM8.51084 20.5316H13.0733C13.0733 17.5064 14.2751 14.6052 16.4142 12.4661C18.5532 10.327 21.4545 9.1253 24.4796 9.1253C27.5047 9.1253 30.4059 10.327 32.545 12.4661C34.6841 14.6052 35.8858 17.5064 35.8858 20.5316H40.4483C40.4483 16.2964 38.7659 12.2347 35.7712 9.23994C32.7765 6.24522 28.7148 4.5628 24.4796 4.5628C20.2444 4.5628 16.1827 6.24522 13.188 9.23994C10.1933 12.2347 8.51084 16.2964 8.51084 20.5316ZM17.6358 20.5316H31.3233C31.3233 18.7165 30.6023 16.9757 29.3189 15.6923C28.0354 14.4088 26.2947 13.6878 24.4796 13.6878C22.6645 13.6878 20.9238 14.4088 19.6403 15.6923C18.3569 16.9757 17.6358 18.7165 17.6358 20.5316ZM48.962 20.5316H53.8484C54.1929 19.1832 54.225 17.774 53.9423 16.4114C53.6596 15.0488 53.0696 13.7686 52.2173 12.6685C51.365 11.5685 50.2727 10.6774 49.0239 10.0634C47.775 9.44938 46.4025 9.12853 45.0108 9.1253C43.9158 9.1253 42.8756 9.31693 41.9083 9.66824C42.7159 10.964 43.382 12.3601 43.893 13.8247C44.762 13.6091 45.6752 13.6535 46.5192 13.9523C47.3632 14.2511 48.1009 14.7911 48.6407 15.5054C49.1806 16.2197 49.4988 17.0767 49.5559 17.9703C49.613 18.8638 49.4065 19.7544 48.962 20.5316ZM42.7296 50.1878H19.9171V52.4691C19.9171 53.0741 20.1574 53.6543 20.5853 54.0821C21.0131 54.51 21.5933 54.7503 22.1983 54.7503H40.4483C41.0534 54.7503 41.6336 54.51 42.0614 54.0821C42.4893 53.6543 42.7296 53.0741 42.7296 52.4691V50.1878ZM18.3111 45.6253H44.3356C51.5717 43.2984 56.1525 36.7193 58.087 25.0941H4.55972C6.49422 36.7193 11.075 43.2984 18.3111 45.6253Z" fill="#DDAA44"/>
</svg>
