<svg width="38" height="42" viewBox="0 0 38 42" fill="none" xmlns="http://www.w3.org/2000/svg">
<path d="M5.7 13.3875C7.49444 12.4425 9.35082 11.725 11.2691 11.235C13.186 10.745 15.1472 10.5 17.1528 10.5C18.2083 10.5 19.2554 10.57 20.2941 10.71C21.3314 10.85 22.3602 11.06 23.3806 11.34C25.1398 11.83 26.486 12.1625 27.4191 12.3375C28.3508 12.5125 29.3444 12.6 30.4 12.6H32.3528L33.25 4.2H4.69722L5.7 13.3875ZM8.44444 42C7.3537 42 6.4037 41.65 5.59444 40.95C4.78519 40.25 4.32778 39.3575 4.22222 38.2725L0 0H38L33.7778 38.2725C33.6722 39.3575 33.2148 40.25 32.4056 40.95C31.5963 41.65 30.6463 42 29.5556 42H8.44444Z" fill="#DDAA44"/>
</svg>
