<svg width="38" height="44" viewBox="0 0 38 44" fill="none" xmlns="http://www.w3.org/2000/svg">
<path d="M7.03125 0C5.16645 0 3.37802 0.74079 2.05941 2.05941C0.74079 3.37802 0 5.16645 0 7.03125V39.0625C0 40.3057 0.49386 41.498 1.37294 42.3771C2.25201 43.2561 3.4443 43.75 4.6875 43.75H23.4375C24.6807 43.75 25.873 43.2561 26.7521 42.3771C27.6311 41.498 28.125 40.3057 28.125 39.0625V34.375H30.4688C32.3336 34.375 34.122 33.6342 35.4406 32.3156C36.7592 30.997 37.5 29.2086 37.5 27.3438V16.4062C37.5 14.5414 36.7592 12.753 35.4406 11.4344C34.122 10.1158 32.3336 9.375 30.4688 9.375H28.125V7.03125C28.125 5.16645 27.3842 3.37802 26.0656 2.05941C24.747 0.74079 22.9586 0 21.0938 0H7.03125ZM28.125 12.5H30.4688C32.625 12.5 34.375 14.25 34.375 16.4062V27.3438C34.375 29.5 32.625 31.25 30.4688 31.25H28.125V12.5ZM3.125 7.03125C3.125 4.875 4.875 3.125 7.03125 3.125H21.0938C23.25 3.125 25 4.875 25 7.03125V9.375H3.125V7.03125ZM21.875 17.1875V32.8125C21.875 33.2269 21.7104 33.6243 21.4174 33.9174C21.1243 34.2104 20.7269 34.375 20.3125 34.375C19.8981 34.375 19.5007 34.2104 19.2076 33.9174C18.9146 33.6243 18.75 33.2269 18.75 32.8125V17.1875C18.75 16.7731 18.9146 16.3757 19.2076 16.0826C19.5007 15.7896 19.8981 15.625 20.3125 15.625C20.7269 15.625 21.1243 15.7896 21.4174 16.0826C21.7104 16.3757 21.875 16.7731 21.875 17.1875ZM14.0625 15.625C14.4769 15.625 14.8743 15.7896 15.1674 16.0826C15.4604 16.3757 15.625 16.7731 15.625 17.1875V32.8125C15.625 33.2269 15.4604 33.6243 15.1674 33.9174C14.8743 34.2104 14.4769 34.375 14.0625 34.375C13.6481 34.375 13.2507 34.2104 12.9576 33.9174C12.6646 33.6243 12.5 33.2269 12.5 32.8125V17.1875C12.5 16.7731 12.6646 16.3757 12.9576 16.0826C13.2507 15.7896 13.6481 15.625 14.0625 15.625ZM9.375 17.1875V32.8125C9.375 33.2269 9.21038 33.6243 8.91735 33.9174C8.62433 34.2104 8.2269 34.375 7.8125 34.375C7.3981 34.375 7.00067 34.2104 6.70765 33.9174C6.41462 33.6243 6.25 33.2269 6.25 32.8125V17.1875C6.25 16.7731 6.41462 16.3757 6.70765 16.0826C7.00067 15.7896 7.3981 15.625 7.8125 15.625C8.2269 15.625 8.62433 15.7896 8.91735 16.0826C9.21038 16.3757 9.375 16.7731 9.375 17.1875Z" fill="#DDAA44"/>
</svg>
