<svg width="38" height="40" viewBox="0 0 38 40" fill="none" xmlns="http://www.w3.org/2000/svg">
<path d="M37.1489 3.23958C37.3583 2.92583 37.4785 2.56114 37.4968 2.18441C37.5151 1.80768 37.4308 1.43305 37.2528 1.10049C37.0749 0.767927 36.81 0.489909 36.4864 0.296095C36.1629 0.102281 35.7928 -5.64245e-05 35.4156 2.33391e-08H2.08226C1.70541 0.000194692 1.33568 0.1026 1.01244 0.296308C0.689192 0.490017 0.424541 0.767774 0.246671 1.1C0.0688013 1.43222 -0.0156265 1.80647 0.00238014 2.18288C0.0203868 2.55929 0.140153 2.92377 0.348924 3.2375L16.6656 27.7146V35.4167H10.4156V39.5833H27.0823V35.4167H20.8323V27.7146L37.1489 3.23958ZM31.5239 4.16667L27.3573 10.4167H10.1406L5.97392 4.16667H31.5239Z" fill="#DDAA44"/>
</svg>
