<svg width="42" height="32" viewBox="0 0 42 32" fill="none" xmlns="http://www.w3.org/2000/svg">
<path d="M3.06863 0C1.37288 0 6.56302e-06 1.39032 6.56302e-06 3.10497V16.0352C-0.00359883 20.0371 1.47838 23.8941 4.15192 26.8411C6.82545 29.788 10.4952 31.6095 14.433 31.9441C18.3708 32.2787 22.2889 31.1021 25.41 28.6476C28.5311 26.1931 30.6271 22.6401 31.2821 18.6936H34.125C36.2136 18.6936 38.2166 17.8534 39.6935 16.3578C41.1703 14.8621 42 12.8336 42 10.7185C42 8.60339 41.1703 6.5749 39.6935 5.07928C38.2166 3.58366 36.2136 2.74343 34.125 2.74343H31.479C31.391 1.98798 31.0324 1.29146 30.4712 0.785839C29.91 0.280218 29.1852 0.0006146 28.434 0H3.06863ZM31.5 5.39913H34.125C35.5174 5.39913 36.8527 5.95929 37.8373 6.95637C38.8219 7.95345 39.375 9.30578 39.375 10.7159C39.375 12.1259 38.8219 13.4783 37.8373 14.4754C36.8527 15.4724 35.5174 16.0326 34.125 16.0326H31.5V5.39913Z" fill="#DDAA44"/>
</svg>
