<svg width="43" height="43" viewBox="0 0 43 43" fill="none" xmlns="http://www.w3.org/2000/svg">
<path d="M23.75 42.75V38H28.5V42.75H23.75ZM19 38V26.125H23.75V38H19ZM38 30.875V21.375H42.75V30.875H38ZM33.25 21.375V16.625H38V21.375H33.25ZM4.75 26.125V21.375H9.5V26.125H4.75ZM0 21.375V16.625H4.75V21.375H0ZM21.375 4.75V0H26.125V4.75H21.375ZM3.5625 10.6875H10.6875V3.5625H3.5625V10.6875ZM0 14.25V0H14.25V14.25H0ZM3.5625 39.1875H10.6875V32.0625H3.5625V39.1875ZM0 42.75V28.5H14.25V42.75H0ZM32.0625 10.6875H39.1875V3.5625H32.0625V10.6875ZM28.5 14.25V0H42.75V14.25H28.5ZM33.25 42.75V35.625H28.5V30.875H38V38H42.75V42.75H33.25ZM23.75 26.125V21.375H33.25V26.125H23.75ZM14.25 26.125V21.375H9.5V16.625H23.75V21.375H19V26.125H14.25ZM16.625 14.25V4.75H21.375V9.5H26.125V14.25H16.625ZM5.34375 8.90625V5.34375H8.90625V8.90625H5.34375ZM5.34375 37.4062V33.8438H8.90625V37.4062H5.34375ZM33.8438 8.90625V5.34375H37.4062V8.90625H33.8438Z" fill="#DDAA44"/>
</svg>
